<svg width="40" height="46" viewBox="0 0 40 46" fill="none" xmlns="http://www.w3.org/2000/svg">
<path d="M17.879 17.8789C15.6384 17.8789 13.4983 14.5837 12.7084 12.936C11.9328 13.4518 12.3933 14.8121 12.7205 15.4277C13.2183 16.2637 12.7779 16.0505 12.4929 15.8373C11.8897 15.4075 11.667 14.4404 11.6312 14.0106C9.64909 16.6754 14.9705 19.3474 17.879 20.3503V17.8789Z" fill="white"/>
<path d="M17.879 17.8789C20.1196 17.8789 22.2596 14.5837 23.0496 12.936C23.8251 13.4518 23.3647 14.8121 23.0375 15.4277C22.5396 16.2637 22.9801 16.0505 23.265 15.8373C23.8683 15.4075 24.0909 14.4404 24.1268 14.0106C26.1088 16.6754 20.7874 19.3474 17.879 20.3503V17.8789Z" fill="white"/>
<path d="M25.5564 18.8141C28.3193 15.7145 26.8515 13.7917 25.7723 13.2177C25.3406 12.9594 25.3766 13.6123 25.4485 13.971C25.6212 14.4015 25.5924 17.3791 25.5564 18.8141Z" fill="white"/>
<path d="M10.4018 18.8141C7.63892 15.7024 9.10671 13.7719 10.186 13.1957C10.6177 12.9364 10.5817 13.5919 10.5097 13.952C10.3371 14.3842 10.3658 17.3735 10.4018 18.8141Z" fill="white"/>
<path d="M9.03969 12.6021C2.65681 13.7215 1.77988 18.6657 2.13927 20.9978C2.91561 21.7728 4.83473 21.8948 5.69725 21.8589C5.43848 19.1895 7.45829 18.3069 8.50054 18.1992C7.46548 15.5298 8.4287 13.3556 9.03969 12.6021Z" fill="white"/>
<path d="M26.9186 12.5798C33.2811 13.7019 34.1552 18.6579 33.797 20.9957C33.0231 21.7725 31.1101 21.8948 30.2504 21.8588C30.5083 19.183 28.495 18.2983 27.456 18.1904C28.4878 15.5146 27.5277 13.3351 26.9186 12.5798Z" fill="white"/>
<path d="M33.0443 22.1984C32.5275 23.8341 33.7622 25.7497 34.4442 26.503C32.2906 26.0725 30.7471 26.4671 30.2446 26.7182C30.503 26.2016 30.4958 25.7855 30.46 25.642C29.4262 25.7281 28.737 26.3236 28.5217 26.6106L28.6294 24.1354C29.4908 23.7911 29.8498 23.0593 29.9215 22.7364C31.5583 22.7364 32.6854 22.3777 33.0443 22.1984Z" fill="white"/>
<path d="M2.89691 22.1984C3.41573 23.8341 2.17633 25.7497 1.49178 26.503C3.65352 26.0725 5.20278 26.4671 5.70719 26.7182C5.44778 26.2016 5.45498 25.7855 5.49101 25.642C6.52865 25.7281 7.22041 26.3236 7.43658 26.6106L7.3285 24.1354C6.4638 23.7911 6.10351 23.0593 6.03145 22.7364C4.38852 22.7364 3.25721 22.3777 2.89691 22.1984Z" fill="white"/>
<path d="M34.3672 27.139C37.5991 29.9395 35.1572 32.8119 33.6131 33.7095C33.6992 32.4169 33.2181 31.5911 32.9668 31.3398C31.9326 30.5642 31.5303 29.5086 31.4585 29.0778C31.2 26.2342 33.5056 26.4926 34.3672 27.139Z" fill="white"/>
<path d="M1.59108 27.2058C-1.6408 30.0063 0.801074 32.8787 2.34518 33.7763C2.25903 32.4838 2.74016 31.658 2.9915 31.4066C4.02569 30.6311 4.4279 29.5755 4.49974 29.1447C4.75828 26.301 2.4527 26.5594 1.59108 27.2058Z" fill="white"/>
<path d="M27.1412 24.8929V40.7171L17.9791 46.0003L8.81702 40.7171V24.8929L17.9791 22.9554L27.1412 24.8929ZM18.4244 29.7796H20.6735V39.5648H22.944V29.7796H25.1041V27.9203H18.4244V29.7796ZM13.0143 39.4984H14.8512V27.9876H13.0143V39.4984Z" fill="white"/>
<circle cx="8.72796" cy="21.3078" r="2.0484" fill="white"/>
<circle cx="27.2303" cy="21.3078" r="2.0484" fill="white"/>
<path d="M7.74823 30.8139L5.48981 28.878C5.40381 29.4803 5.0238 29.9893 4.84455 30.1686C1.31711 34.4707 5.31057 35.4028 7.74823 35.3311V30.8139Z" fill="white"/>
<path d="M28.21 30.8139L30.4801 28.878C30.5665 29.4803 30.9485 29.9893 31.1287 30.1686C34.6744 34.4707 30.6603 35.4028 28.21 35.3311V30.8139Z" fill="white"/>
<path d="M17.9903 21.313C15.4923 21.313 12.4991 19.0831 11.3147 17.9681C12.1761 20.644 11.3147 22.8236 10.7764 23.5789L17.9903 22.0683V21.313Z" fill="white"/>
<path d="M17.9902 21.313C20.4882 21.313 23.4814 19.0831 24.6658 17.9681C23.8044 20.644 24.6658 22.8236 25.2042 23.5789L17.9902 22.0683V21.313Z" fill="white"/>
<path d="M15.9363 14.22L17.9832 16.1591V14.22H15.9363Z" fill="white"/>
<path d="M16.6904 9.58774H15.8286V8.51047H17.9832V14.22H16.5827C16.6689 14.22 16.6904 11.1318 16.6904 9.58774Z" fill="white"/>
<path d="M14.9669 13.3582C14.7945 13.3582 14.6796 10.1982 14.6437 8.61816V8.40271H15.9364V9.58771C15.7891 13.0494 16.1558 14.0824 16.4449 14.22H16.5828C16.541 14.2408 16.4941 14.2434 16.4449 14.22H15.7209L14.9669 13.3582Z" fill="white"/>
<path d="M13.4586 13.1427C14.579 14.4354 16.9418 15.6922 17.9832 16.159L14.8591 13.1427C14.2558 13.1427 14.105 10.27 14.105 8.83361L17.9832 8.51043C16.949 8.51043 14.895 7.72043 13.9973 7.32543C13.9973 7.06689 16.6545 6.57134 17.9832 6.35589V4.20135C17.7246 4.20135 15.7927 4.91953 14.8591 5.27862C14.1696 5.53717 14.5 5.17089 14.7513 4.95544L17.9832 3.44726V0C15.4839 1.12036 13.8536 2.90863 13.3509 3.66272C12.7476 5.1278 12.3095 7.14589 12.1659 7.9718C12.8553 9.78161 13.315 12.1731 13.4586 13.1427Z" fill="white"/>
<path d="M20.03 14.22L17.9832 16.1591V14.22H20.03Z" fill="white"/>
<path d="M19.2758 9.58774H20.1376V8.51047H17.9831V14.22H19.3835C19.2974 14.22 19.2758 11.1318 19.2758 9.58774Z" fill="white"/>
<path d="M20.9995 13.3582C21.1719 13.3582 21.2868 10.1982 21.3227 8.61816V8.40271H20.03V9.58771C20.1773 13.0494 19.8105 14.0824 19.5215 14.22H19.3836C19.4254 14.2408 19.4723 14.2434 19.5215 14.22H20.2454L20.9995 13.3582Z" fill="white"/>
<path d="M22.5078 13.1427C21.3875 14.4354 19.0246 15.6922 17.9833 16.159L21.1074 13.1427C21.7106 13.1427 21.8615 10.27 21.8615 8.83361L17.9833 8.51043C19.0175 8.51043 21.0715 7.72043 21.9692 7.32543C21.9692 7.06689 19.3119 6.57134 17.9833 6.35589V4.20135C18.2418 4.20135 20.1737 4.91953 21.1074 5.27862C21.7968 5.53717 21.4665 5.17089 21.2151 4.95544L17.9833 3.44726V0C20.4825 1.12036 22.1128 2.90863 22.6155 3.66272C23.2188 5.1278 23.6569 7.14589 23.8005 7.9718C23.1111 9.78161 22.6514 12.1731 22.5078 13.1427Z" fill="white"/>
<path d="M37.0581 6.57137C37.489 7.0886 38.7458 7.07423 39.3204 7.00239C39.0618 7.51959 38.279 7.72078 37.9199 7.75672C36.4548 7.23949 35.514 6.39181 35.2268 6.03262H34.4727C34.3865 6.03262 34.4368 6.60732 34.4727 6.89467C33.4385 6.03262 32.1745 5.81711 31.6718 5.81711C31.2409 5.81711 32.2822 6.60732 32.8568 7.00243C30.1852 6.91622 29.0864 7.18202 28.8709 7.3257C28.5262 7.67052 28.9427 7.9004 29.1941 7.97223C27.9876 8.74808 27.255 8.79837 27.0396 8.72653C24.885 7.86448 24.7055 6.35589 24.885 5.70935C25.4021 6.4852 25.8905 6.67916 26.07 6.67916C25.9839 5.73091 25.7469 4.63179 25.6391 4.20077C25.122 3.51113 24.2028 3.1232 23.8078 3.01545V2.26115C23.1183 2.08874 23.3051 1.54278 23.4846 1.29135C23.4846 1.11894 22.551 1.29135 22.0842 1.39911C21.8256 0.96808 21.4737 0.716639 21.3301 0.644796C24.6911 -0.820688 26.6087 1.68644 27.1473 3.12319C28.1815 4.58867 30.4509 4.38034 31.4563 4.09299C33.3523 4.43781 34.5445 4.52401 34.9036 4.524C35.1621 4.35159 36.4477 5.81707 37.0581 6.57137Z" fill="white"/>
</svg>
